<?xml version="1.0" standalone="no"?>
<!DOCTYPE svg PUBLIC "-//W3C//DTD SVG 20010904//EN"
 "http://www.w3.org/TR/2001/REC-SVG-20010904/DTD/svg10.dtd">
<svg version="1.0" xmlns="http://www.w3.org/2000/svg"
 width="828.000000pt" height="346.000000pt" viewBox="0 0 828.000000 346.000000"
 preserveAspectRatio="xMidYMid meet">

<g transform="translate(0.000000,346.000000) scale(0.100000,-0.100000)"
fill="#000000" stroke="none">
<path d="M0 1730 l0 -1730 4140 0 4140 0 0 1730 0 1730 -4140 0 -4140 0 0
-1730z m1260 765 l0 -385 258 2 257 3 0 380 0 380 228 3 227 2 -2 -992 -3
-993 -222 -1 -223 -2 0 384 0 384 -262 -2 -263 -3 4 -360 c2 -198 1 -370 -3
-383 -7 -22 -10 -22 -149 -19 -78 1 -178 0 -222 -3 l-80 -5 -3 985 c-1 542 0
991 3 998 3 9 59 12 230 12 l225 0 0 -385z m2284 368 c2 -10 21 -79 41 -153
20 -74 73 -259 117 -410 44 -151 104 -356 133 -455 29 -99 101 -346 159 -550
59 -203 109 -377 112 -386 4 -15 -19 -16 -253 -15 l-257 2 -86 260 -87 259
-191 3 -190 2 -83 -252 c-45 -139 -86 -259 -92 -266 -7 -9 -35 -11 -111 -7
-56 3 -166 2 -244 -2 -79 -4 -146 -5 -148 -1 -6 9 14 76 329 1158 91 311 182
625 203 698 l37 132 303 0 c280 0 303 -1 308 -17z m1167 -53 c46 -83 254 -470
378 -706 l96 -182 3 479 2 479 243 -2 242 -3 -1 -22 c0 -13 -1 -459 -2 -991
l-2 -968 -225 1 c-124 1 -230 6 -235 11 -10 10 -21 30 -307 559 -108 198 -199
364 -204 370 -5 5 -9 -189 -9 -466 l0 -474 -240 -1 -240 -1 0 994 0 993 232
-2 232 -3 37 -65z m1964 42 c189 -63 312 -164 369 -307 13 -34 27 -77 31 -96
l6 -35 -178 -68 c-98 -37 -187 -70 -198 -72 -16 -3 -26 9 -50 58 -62 129 -205
174 -291 93 -28 -27 -34 -40 -34 -74 0 -23 6 -54 14 -69 20 -39 130 -119 296
-215 152 -89 205 -128 283 -204 77 -76 143 -176 170 -258 27 -78 41 -221 28
-289 -27 -145 -123 -263 -273 -335 -138 -66 -188 -76 -388 -75 -167 0 -179 1
-255 29 -174 62 -292 161 -364 305 -22 45 -41 90 -41 100 0 12 17 24 53 38 28
11 122 50 207 86 85 36 158 66 162 66 3 0 20 -24 36 -54 36 -63 102 -122 154
-138 69 -21 159 23 176 85 27 97 -31 161 -297 327 -102 63 -213 138 -248 166
-111 91 -178 189 -202 295 -15 63 -13 205 3 265 54 202 249 353 511 395 82 13
252 3 320 -19z m950 -1592 c3 -5 3 -90 -1 -189 l-7 -179 -181 2 -181 1 -3 188
-2 187 184 0 c109 0 187 -4 191 -10z"/>
</g>
</svg>
